# xmcd CD database file
#
# Track frame offsets:
#	150
#	13407
#	30097
#	42927
#	56267
#	68350
#	81115
#	94000
#	106437
#	119292
#	131085
#	141890
#	158122
#	173975
#	186192
#
# Disc length: 2718 seconds
#
# Revision: 1
# Processed by: cddbd v1.4PL0 Copyright (c) Steve Scherf et al.
# Submitted via: CDex 1.50beta9
#
DISCID=bf0a9c0f
DTITLE=Various Artist - WESTERN LOVE SONGS 7
DYEAR=2002
DGENRE=Country
TTITLE0=SOUNDS OF SILENCE
TTITLE1=SCARABOROUGH FAIR
TTITLE2=OVER THE RAINBOW
TTITLE3=LEMON TREE
TTITLE4=EVERYBODY'S SOMEBODY'S FOOL
TTITLE5=RAMBLIN' ROSE
TTITLE6=CHACHITO
TTITLE7=GUY IS A GUY
TTITLE8=CRYING IN THE CHAPEL
TTITLE9=A SUMMER PLACE
TTITLE10=NO MORE
TTITLE11=TONIGHT FROM "WEST SIDE STORY"
TTITLE12=THE WAY WE WERE
TTITLE13=NEVER ON SUNDAY
TTITLE14=SUNRISE SUNSET
EXTD=YEAR: 2002
EXTT0=
EXTT1=
EXTT2=
EXTT3=
EXTT4=
EXTT5=
EXTT6=
EXTT7=
EXTT8=
EXTT9=
EXTT10=
EXTT11=
EXTT12=
EXTT13=
EXTT14=
PLAYORDER=
